<?xml version="1.0" encoding="UTF-8"?>
<svg width="18px" height="21px" viewBox="0 0 18 21" version="1.1" xmlns="http://www.w3.org/2000/svg" xmlns:xlink="http://www.w3.org/1999/xlink">
    <!-- Generator: sketchtool 59 (101010) - https://sketch.com -->
    <title>E17BDDE5-767E-4ADE-89F7-75157F830F42</title>
    <desc>Created with sketchtool.</desc>
    <g id="Hifi-UI-Designs" stroke="none" stroke-width="1" fill="none" fill-rule="evenodd">
        <g id="Profile_1" transform="translate(-17.000000, -36.000000)" fill="#D8D8D8" fill-rule="nonzero">
            <g id="Group-12" transform="translate(17.000000, 36.000000)">
                <g id="bell">
                    <path d="M17.0920938,13.5736699 C16.4095,12.8852227 15.7040848,12.1732734 15.7040848,8.81245313 C15.7040848,5.40708984 13.2548794,2.57504297 10.0603213,2.05463672 C10.207467,1.83632904 10.2860806,1.57749343 10.2857231,1.3125 C10.2857231,0.587630859 9.71008473,0 9,0 C8.28993292,0 7.71429452,0.587630859 7.71429452,1.3125 C7.71392979,1.57750111 7.79252845,1.83634809 7.93965613,2.05467773 C4.74513823,2.57508398 2.29593284,5.40713086 2.29593284,8.81249414 C2.29593284,12.1730273 1.59075873,12.8850176 0.908044433,13.5735059 C-1.02438416,15.5219941 0.390785497,18.375 2.68871856,18.375 L6.42858022,18.375 C6.42858022,19.8247383 7.57985702,21 9,21 C10.4201606,21 11.5714374,19.8247383 11.5714374,18.375 L15.3112589,18.375 C17.6090714,18.375 19.0243616,15.5210098 17.0920938,13.5736699 L17.0920938,13.5736699 Z M9.00000883,19.359375 C8.4682856,19.359375 8.0357231,18.9178008 8.0357231,18.375 L9.96429455,18.375 C9.96429455,18.9178008 9.53173205,19.359375 9.00000883,19.359375 Z M15.3117411,16.40625 L2.68795517,16.40625 C2.01448195,16.40625 1.67806676,15.5699414 2.15221409,15.085916 C3.30071857,13.9134844 4.2245043,12.8003613 4.2245043,8.81249414 C4.2245043,6.12441211 6.36678558,3.9375 9.00000883,3.9375 C11.6332321,3.9375 13.7755134,6.12441211 13.7755134,8.81249414 C13.7755134,12.8176699 14.7085,13.9219746 15.847442,15.085916 C16.3236786,15.5720332 15.9823616,16.40625 15.3117411,16.40625 Z" id="Shape"></path>
                </g>
            </g>
        </g>
    </g>
</svg>