<?xml version="1.0" encoding="UTF-8"?>
<svg width="24px" height="24px" viewBox="0 0 24 24" version="1.1" xmlns="http://www.w3.org/2000/svg" xmlns:xlink="http://www.w3.org/1999/xlink">
    <!-- Generator: sketchtool 59 (101010) - https://sketch.com -->
    <title>056EC451-B4D0-4DDD-BC69-A799F936E9D6</title>
    <desc>Created with sketchtool.</desc>
    <g id="Hifi-UI-Designs" stroke="none" stroke-width="1" fill="none" fill-rule="evenodd">
        <g id="Home2_nolocationdata" transform="translate(-32.000000, -790.000000)" fill="#3345A9" fill-rule="nonzero">
            <g id="NavBar_4Tab" transform="translate(0.000000, 778.000000)">
                <g id="NavBar">
                    <g id="Group" transform="translate(32.000000, 12.000000)">
                        <g id="ic_explore-ic_explore_active">
                            <g id="street-view" transform="translate(0.000000, 0.000000)">
                                <path d="M15.3162188,6.57534375 C15.8241563,5.88970312 16.125,5.041875 16.125,4.125 C16.125,1.85048437 14.2745156,0 12,0 C9.72548438,0 7.875,1.85048437 7.875,4.125 C7.875,5.041875 8.17584375,5.88970312 8.68378125,6.57534375 C7.33992188,7.05365625 6.375,8.33779688 6.375,9.84375 L6.375,13.3412344 C6.375,14.5009219 7.17379688,15.4776094 8.25,15.75 L8.25,18.515625 C8.25,19.8855 9.3645,21 10.734375,21 L13.265625,21 C14.6355,21 15.75,19.8855 15.75,18.515625 L15.75,15.75 C16.8262031,15.4775625 17.625,14.5009219 17.625,13.3412344 L17.625,9.84375 C17.625,8.33779688 16.6600781,7.05365625 15.3162188,6.57534375 Z M12,1.5 C13.44975,1.5 14.625,2.67525 14.625,4.125 C14.625,5.57475 13.44975,6.75 12,6.75 C10.55025,6.75 9.375,5.57475 9.375,4.125 C9.375,2.67525 10.55025,1.5 12,1.5 Z M16.125,13.3412344 C16.125,13.8848906 15.6842813,14.3256094 15.140625,14.3256094 L14.25,14.3256094 L14.25,18.515625 C14.25,19.0592813 13.8092813,19.5 13.265625,19.5 L10.734375,19.5 C10.1907188,19.5 9.75,19.0592813 9.75,18.515625 L9.75,14.3256094 L8.859375,14.3256094 C8.31571875,14.3256094 7.875,13.8848906 7.875,13.3412344 L7.875,9.84375 C7.875,8.7564375 8.7564375,7.875 9.84375,7.875 L10.2825,7.875 C11.3470781,8.36451563 12.6070313,8.38565625 13.7175,7.875 L14.15625,7.875 C15.2435625,7.875 16.125,8.7564375 16.125,9.84375 L16.125,13.3412344 Z M24,19.5 C24,23.1143906 15.6259688,24 12,24 C8.3791875,24 0,23.1157031 0,19.5 C0,17.646 2.20335938,16.5100781 4.839,15.8432813 C5.1449061,16.3350306 5.53841734,16.766498 6,17.1162656 L6,17.1380156 C3.57098438,17.6320313 1.5,18.4158281 1.5,19.5 C1.5,21.6705 9.358875,22.5 12,22.5 C15.2954531,22.5 22.5,21.5222344 22.5,19.5 C22.5,18.3770156 20.3962969,17.6130469 18,17.1371719 L18,17.1162656 C18.461569,16.7665017 18.8550783,16.3350523 19.161,15.8432813 C21.7963594,16.5099844 24,17.6458125 24,19.5 Z" id="Shape"></path>
                            </g>
                        </g>
                    </g>
                </g>
            </g>
        </g>
    </g>
</svg>