<?xml version="1.0" encoding="UTF-8"?>
<svg width="16px" height="16px" viewBox="0 0 16 16" version="1.1" xmlns="http://www.w3.org/2000/svg" xmlns:xlink="http://www.w3.org/1999/xlink">
    <!-- Generator: sketchtool 64 (101010) - https://sketch.com -->
    <title>5D204C07-1ACB-46C6-B7BD-E043E499EEC7</title>
    <desc>Created with sketchtool.</desc>
    <g id="Hifi-UI-Designs" stroke="none" stroke-width="1" fill="none" fill-rule="evenodd">
        <g id="All-reviews" transform="translate(-19.000000, -92.000000)">
            <g id="Group" transform="translate(16.000000, 92.000000)">
                <g id="cmp_friendItem">
                    <g id="Group-2">
                        <g id="Group-5">
                            <g id="Group-14">
                                <g id="ic_friend" transform="translate(3.000000, 0.000000)">
                                    <circle id="Oval" fill="#B8E46D" cx="8" cy="8" r="8"></circle>
                                    <g id="user-plus" transform="translate(5.000000, 4.000000)" fill="#FFFFFF" fill-rule="nonzero">
                                        <path d="M3,3.5 C3.946875,3.5 4.71428571,2.71660156 4.71428571,1.75 C4.71428571,0.783398438 3.946875,0 3,0 C2.053125,0 1.28571429,0.783398438 1.28571429,1.75 C1.28571429,2.71660156 2.053125,3.5 3,3.5 Z M4.2,3.9375 L3.97633929,3.9375 C3.67901786,4.07695313 3.34821429,4.15625 3,4.15625 C2.65178571,4.15625 2.32232143,4.07695313 2.02366071,3.9375 L1.8,3.9375 C0.80625,3.9375 0,4.76054688 0,5.775 L0,6.34375 C0,6.70605469 0.287946429,7 0.642857143,7 L5.35714286,7 C5.71205357,7 6,6.70605469 6,6.34375 L6,5.775 C6,4.76054688 5.19375,3.9375 4.2,3.9375 Z" id="Shape"></path>
                                    </g>
                                </g>
                            </g>
                        </g>
                    </g>
                </g>
            </g>
        </g>
    </g>
</svg>