<?xml version="1.0" encoding="UTF-8"?>
<svg width="19px" height="17px" viewBox="0 0 19 17" version="1.1" xmlns="http://www.w3.org/2000/svg" xmlns:xlink="http://www.w3.org/1999/xlink">
    <!-- Generator: sketchtool 64 (101010) - https://sketch.com -->
    <title>B6772BFB-344E-45CE-AC95-16579E121256</title>
    <desc>Created with sketchtool.</desc>
    <g id="Hifi-UI-Designs" stroke="none" stroke-width="1" fill="none" fill-rule="evenodd">
        <g id="Home2_search-active" transform="translate(-321.000000, -51.000000)" fill="#3345A9" fill-rule="nonzero">
            <g id="Group-5" transform="translate(0.000000, -115.000000)">
                <g id="SearchBar" transform="translate(15.000000, 151.000000)">
                    <g id="Group-9">
                        <g id="ic_filter" transform="translate(306.000000, 15.000000)">
                            <g id="sliders-h">
                                <path d="M18.40625,1.51785714 L10.6875,1.51785714 L10.6875,0.607142857 C10.6875,0.273214286 10.4203125,0 10.09375,0 L8.90625,0 C8.5796875,0 8.3125,0.273214286 8.3125,0.607142857 L8.3125,1.51785714 L0.59375,1.51785714 C0.2671875,1.51785714 0,1.79107143 0,2.125 L0,2.73214286 C0,3.06607143 0.2671875,3.33928571 0.59375,3.33928571 L8.3125,3.33928571 L8.3125,4.25 C8.3125,4.58392857 8.5796875,4.85714286 8.90625,4.85714286 L10.09375,4.85714286 C10.4203125,4.85714286 10.6875,4.58392857 10.6875,4.25 L10.6875,3.33928571 L18.40625,3.33928571 C18.7328125,3.33928571 19,3.06607143 19,2.73214286 L19,2.125 C19,1.79107143 18.7328125,1.51785714 18.40625,1.51785714 Z M18.40625,13.6607143 L5.9375,13.6607143 L5.9375,12.75 C5.9375,12.4160714 5.6703125,12.1428571 5.34375,12.1428571 L4.15625,12.1428571 C3.8296875,12.1428571 3.5625,12.4160714 3.5625,12.75 L3.5625,13.6607143 L0.59375,13.6607143 C0.2671875,13.6607143 0,13.9339286 0,14.2678571 L0,14.875 C0,15.2089286 0.2671875,15.4821429 0.59375,15.4821429 L3.5625,15.4821429 L3.5625,16.3928571 C3.5625,16.7267857 3.8296875,17 4.15625,17 L5.34375,17 C5.6703125,17 5.9375,16.7267857 5.9375,16.3928571 L5.9375,15.4821429 L18.40625,15.4821429 C18.7328125,15.4821429 19,15.2089286 19,14.875 L19,14.2678571 C19,13.9339286 18.7328125,13.6607143 18.40625,13.6607143 Z M18.40625,7.58928571 L15.4375,7.58928571 L15.4375,6.67857143 C15.4375,6.34464286 15.1703125,6.07142857 14.84375,6.07142857 L13.65625,6.07142857 C13.3296875,6.07142857 13.0625,6.34464286 13.0625,6.67857143 L13.0625,7.58928571 L0.59375,7.58928571 C0.2671875,7.58928571 0,7.8625 0,8.19642857 L0,8.80357143 C0,9.1375 0.2671875,9.41071429 0.59375,9.41071429 L13.0625,9.41071429 L13.0625,10.3214286 C13.0625,10.6553571 13.3296875,10.9285714 13.65625,10.9285714 L14.84375,10.9285714 C15.1703125,10.9285714 15.4375,10.6553571 15.4375,10.3214286 L15.4375,9.41071429 L18.40625,9.41071429 C18.7328125,9.41071429 19,9.1375 19,8.80357143 L19,8.19642857 C19,7.8625 18.7328125,7.58928571 18.40625,7.58928571 Z" id="Shape"></path>
                            </g>
                        </g>
                    </g>
                </g>
            </g>
        </g>
    </g>
</svg>