<?xml version="1.0" encoding="UTF-8"?>
<svg width="41px" height="38px" viewBox="0 0 41 38" version="1.1" xmlns="http://www.w3.org/2000/svg" xmlns:xlink="http://www.w3.org/1999/xlink">
    <!-- Generator: sketchtool 64 (101010) - https://sketch.com -->
    <title>70E5FAAE-0222-4F07-A88F-9A4D5C5100CA</title>
    <desc>Created with sketchtool.</desc>
    <g id="Hifi-UI-Designs" stroke="none" stroke-width="1" fill="none" fill-rule="evenodd">
        <g id="BookMarkPopup" transform="translate(-212.000000, -820.000000)">
            <g id="Group-11">
                <g id="list-alt" transform="translate(212.000000, 820.000000)">
                    <path d="M30.8125,2.07142857 C31.3984023,2.07142857 31.875,2.53607589 31.875,3.10714286 L31.875,25.8928571 C31.875,26.4639241 31.3984023,26.9285714 30.8125,26.9285714 L3.1875,26.9285714 C2.60159766,26.9285714 2.125,26.4639241 2.125,25.8928571 L2.125,3.10714286 C2.125,2.53607589 2.60159766,2.07142857 3.1875,2.07142857 L30.8125,2.07142857 M30.8125,0 L3.1875,0 C1.42707031,0 0,1.39109375 0,3.10714286 L0,25.8928571 C0,27.6089063 1.42707031,29 3.1875,29 L30.8125,29 C32.5729297,29 34,27.6089063 34,25.8928571 L34,3.10714286 C34,1.39109375 32.5729297,0 30.8125,0 Z M8.5,6.21428571 C7.32640234,6.21428571 6.375,7.14170313 6.375,8.28571429 C6.375,9.42972545 7.32640234,10.3571429 8.5,10.3571429 C9.67359766,10.3571429 10.625,9.42972545 10.625,8.28571429 C10.625,7.14170313 9.67359766,6.21428571 8.5,6.21428571 Z M8.5,12.4285714 C7.32640234,12.4285714 6.375,13.3559888 6.375,14.5 C6.375,15.6440112 7.32640234,16.5714286 8.5,16.5714286 C9.67359766,16.5714286 10.625,15.6440112 10.625,14.5 C10.625,13.3559888 9.67359766,12.4285714 8.5,12.4285714 Z M8.5,18.6428571 C7.32640234,18.6428571 6.375,19.5702746 6.375,20.7142857 C6.375,21.8582969 7.32640234,22.7857143 8.5,22.7857143 C9.67359766,22.7857143 10.625,21.8582969 10.625,20.7142857 C10.625,19.5702746 9.67359766,18.6428571 8.5,18.6428571 Z M27.625,9.0625 L27.625,7.50892857 C27.625,7.29442512 27.4466135,7.12053571 27.2265625,7.12053571 L13.1484375,7.12053571 C12.9283865,7.12053571 12.75,7.29442512 12.75,7.50892857 L12.75,9.0625 C12.75,9.27700345 12.9283865,9.45089286 13.1484375,9.45089286 L27.2265625,9.45089286 C27.4466135,9.45089286 27.625,9.27700345 27.625,9.0625 Z M27.625,15.2767857 L27.625,13.7232143 C27.625,13.5087108 27.4466135,13.3348214 27.2265625,13.3348214 L13.1484375,13.3348214 C12.9283865,13.3348214 12.75,13.5087108 12.75,13.7232143 L12.75,15.2767857 C12.75,15.4912892 12.9283865,15.6651786 13.1484375,15.6651786 L27.2265625,15.6651786 C27.4466135,15.6651786 27.625,15.4912892 27.625,15.2767857 Z M27.625,21.4910714 L27.625,19.9375 C27.625,19.7229965 27.4466135,19.5491071 27.2265625,19.5491071 L13.1484375,19.5491071 C12.9283865,19.5491071 12.75,19.7229965 12.75,19.9375 L12.75,21.4910714 C12.75,21.7055749 12.9283865,21.8794643 13.1484375,21.8794643 L27.2265625,21.8794643 C27.4466135,21.8794643 27.625,21.7055749 27.625,21.4910714 Z" id="Shape" fill="#D8D8D8" fill-rule="nonzero"></path>
                    <circle id="Oval" stroke="#D8D8D8" stroke-width="2" fill="#FFFFFF" cx="31.5" cy="28.5" r="8.5"></circle>
                    <text id="+" font-family="NotoSans, Noto Sans" font-size="18" font-weight="normal" fill="#D8D8D8">
                        <tspan x="27" y="34">+</tspan>
                    </text>
                </g>
            </g>
        </g>
    </g>
</svg>