<?xml version="1.0" encoding="UTF-8"?>
<svg width="26px" height="35px" viewBox="0 0 26 35" version="1.1" xmlns="http://www.w3.org/2000/svg" xmlns:xlink="http://www.w3.org/1999/xlink">
    <!-- Generator: sketchtool 64 (101010) - https://sketch.com -->
    <title>529B9226-1507-4CDF-BDD1-0DBD68E5A3C9</title>
    <desc>Created with sketchtool.</desc>
    <g id="Hifi-UI-Designs" stroke="none" stroke-width="1" fill="none" fill-rule="evenodd">
        <g id="BookMarkPopup" transform="translate(-49.000000, -817.000000)" fill="#D8D8D8" fill-rule="nonzero">
            <g id="Group-11">
                <g id="map-marker-alt" transform="translate(49.000000, 817.000000)">
                    <path d="M13,6.5625032 C9.41585937,6.5625032 6.5,9.50640113 6.5,13.1250064 C6.5,16.7436117 9.41585937,19.6875096 13,19.6875096 C16.5841406,19.6875096 19.5,16.7436117 19.5,13.1250064 C19.5,9.50640113 16.5841406,6.5625032 13,6.5625032 Z M13,17.5000085 C10.6105729,17.5000085 8.66666667,15.5374099 8.66666667,13.1250064 C8.66666667,10.7126029 10.6105729,8.75000427 13,8.75000427 C15.3894271,8.75000427 17.3333333,10.7126029 17.3333333,13.1250064 C17.3333333,15.5374099 15.3894271,17.5000085 13,17.5000085 Z M13,0 C5.82027604,0 0,5.8762431 0,13.1250064 C0,18.4169133 1.82609375,19.894707 11.6639792,34.2938644 C12.3095104,35.2353102 13.6904219,35.2354469 14.3360885,34.2938644 C24.1739062,19.894707 26,18.4169133 26,13.1250064 C26,5.8762431 20.179724,0 13,0 Z M13,32.3976428 C3.56856771,18.6271185 2.16666667,17.5337781 2.16666667,13.1250064 C2.16666667,10.203462 3.29353646,7.45684934 5.33968229,5.39102802 C7.38582813,3.3252067 10.1062813,2.18750107 13,2.18750107 C15.8937188,2.18750107 18.6141719,3.3252067 20.6603177,5.39102802 C22.7064635,7.45684934 23.8333333,10.203462 23.8333333,13.1250064 C23.8333333,17.5335047 22.4323125,18.625888 13,32.3976428 Z" id="Shape"></path>
                </g>
            </g>
        </g>
    </g>
</svg>