<?xml version="1.0" encoding="UTF-8"?>
<svg width="24px" height="24px" viewBox="0 0 24 24" version="1.1" xmlns="http://www.w3.org/2000/svg" xmlns:xlink="http://www.w3.org/1999/xlink">
    <!-- Generator: sketchtool 59 (101010) - https://sketch.com -->
    <title>D458B9C4-EFB1-46D9-B7D4-65A363C52886</title>
    <desc>Created with sketchtool.</desc>
    <g id="Hifi-UI-Designs" stroke="none" stroke-width="1" fill="none" fill-rule="evenodd">
        <g id="Home2_nolocationdata" transform="translate(-319.000000, -790.000000)" fill="#D8D8D8" fill-rule="nonzero">
            <g id="NavBar_4Tab" transform="translate(0.000000, 778.000000)">
                <g id="NavBar">
                    <g id="Group" transform="translate(32.000000, 12.000000)">
                        <g id="ic_profile" transform="translate(287.000000, 0.000000)">
                            <g id="user-circle" transform="translate(0.000000, 0.000000)">
                                <path d="M12,0 C5.37096774,0 0,5.37096774 0,12 C0,18.6290323 5.37096774,24 12,24 C18.6290323,24 24,18.6290323 24,12 C24,5.37096774 18.6290323,0 12,0 Z M18.1935484,20.4 C16.4564516,21.6822581 14.3177419,22.4516129 12,22.4516129 C9.68225806,22.4516129 7.54354839,21.6822581 5.80645161,20.4 L5.80645161,19.7419355 C5.80645161,18.033871 7.19516129,16.6451613 8.90322581,16.6451613 C9.44032258,16.6451613 10.233871,17.1967742 12,17.1967742 C13.7709677,17.1967742 14.5548387,16.6451613 15.0967742,16.6451613 C16.8048387,16.6451613 18.1935484,18.033871 18.1935484,19.7419355 L18.1935484,20.4 Z M19.6741935,19.0693548 C19.3451613,16.8241935 17.433871,15.0967742 15.0967742,15.0967742 C14.1048387,15.0967742 13.6258065,15.6483871 12,15.6483871 C10.3741935,15.6483871 9.9,15.0967742 8.90322581,15.0967742 C6.56612903,15.0967742 4.65483871,16.8241935 4.32580645,19.0693548 C2.60806452,17.2064516 1.5483871,14.7290323 1.5483871,12 C1.5483871,6.23709677 6.23709677,1.5483871 12,1.5483871 C17.7629032,1.5483871 22.4516129,6.23709677 22.4516129,12 C22.4516129,14.7290323 21.3919355,17.2064516 19.6741935,19.0693548 Z M12,5.41935484 C9.6483871,5.41935484 7.74193548,7.32580645 7.74193548,9.67741935 C7.74193548,12.0290323 9.6483871,13.9354839 12,13.9354839 C14.3516129,13.9354839 16.2580645,12.0290323 16.2580645,9.67741935 C16.2580645,7.32580645 14.3516129,5.41935484 12,5.41935484 Z M12,12.3870968 C10.5048387,12.3870968 9.29032258,11.1725806 9.29032258,9.67741935 C9.29032258,8.18225806 10.5048387,6.96774194 12,6.96774194 C13.4951613,6.96774194 14.7096774,8.18225806 14.7096774,9.67741935 C14.7096774,11.1725806 13.4951613,12.3870968 12,12.3870968 Z" id="Shape"></path>
                            </g>
                        </g>
                    </g>
                </g>
            </g>
        </g>
    </g>
</svg>