<?xml version="1.0" encoding="UTF-8"?>
<svg width="24px" height="24px" viewBox="0 0 24 24" version="1.1" xmlns="http://www.w3.org/2000/svg" xmlns:xlink="http://www.w3.org/1999/xlink">
    <!-- Generator: sketchtool 59 (101010) - https://sketch.com -->
    <title>A571D41E-77B9-402B-ABE3-D5C64913FACD</title>
    <desc>Created with sketchtool.</desc>
    <g id="Hifi-UI-Designs" stroke="none" stroke-width="1" fill="none" fill-rule="evenodd">
        <g id="Calendar" transform="translate(-129.000000, -1259.000000)" fill="#3345A9" fill-rule="nonzero">
            <g id="NavBar_4Tab" transform="translate(0.000000, 1247.000000)">
                <g id="NavBar">
                    <g id="Group" transform="translate(32.000000, 12.000000)">
                        <g id="ic_plan-ic_plan_active" transform="translate(97.000000, 0.000000)">
                            <g id="calendar-alt">
                                <path d="M21.4285714,3 L18.8571429,3 L18.8571429,0.5625 C18.8571429,0.253125 18.5678571,0 18.2142857,0 L17.7857143,0 C17.4321429,0 17.1428571,0.253125 17.1428571,0.5625 L17.1428571,3 L6.85714286,3 L6.85714286,0.5625 C6.85714286,0.253125 6.56785714,0 6.21428571,0 L5.78571429,0 C5.43214286,0 5.14285714,0.253125 5.14285714,0.5625 L5.14285714,3 L2.57142857,3 C1.15178571,3 0,4.0078125 0,5.25 L0,21.75 C0,22.9921875 1.15178571,24 2.57142857,24 L21.4285714,24 C22.8482143,24 24,22.9921875 24,21.75 L24,5.25 C24,4.0078125 22.8482143,3 21.4285714,3 Z M2.57142857,4.5 L21.4285714,4.5 C21.9,4.5 22.2857143,4.8375 22.2857143,5.25 L22.2857143,7.5 L1.71428571,7.5 L1.71428571,5.25 C1.71428571,4.8375 2.1,4.5 2.57142857,4.5 Z M21.4285714,22.5 L2.57142857,22.5 C2.1,22.5 1.71428571,22.1625 1.71428571,21.75 L1.71428571,9 L22.2857143,9 L22.2857143,21.75 C22.2857143,22.1625 21.9,22.5 21.4285714,22.5 Z M7.92857143,15 L5.78571429,15 C5.43214286,15 5.14285714,14.746875 5.14285714,14.4375 L5.14285714,12.5625 C5.14285714,12.253125 5.43214286,12 5.78571429,12 L7.92857143,12 C8.28214286,12 8.57142857,12.253125 8.57142857,12.5625 L8.57142857,14.4375 C8.57142857,14.746875 8.28214286,15 7.92857143,15 Z M13.0714286,15 L10.9285714,15 C10.575,15 10.2857143,14.746875 10.2857143,14.4375 L10.2857143,12.5625 C10.2857143,12.253125 10.575,12 10.9285714,12 L13.0714286,12 C13.425,12 13.7142857,12.253125 13.7142857,12.5625 L13.7142857,14.4375 C13.7142857,14.746875 13.425,15 13.0714286,15 Z M18.2142857,15 L16.0714286,15 C15.7178571,15 15.4285714,14.746875 15.4285714,14.4375 L15.4285714,12.5625 C15.4285714,12.253125 15.7178571,12 16.0714286,12 L18.2142857,12 C18.5678571,12 18.8571429,12.253125 18.8571429,12.5625 L18.8571429,14.4375 C18.8571429,14.746875 18.5678571,15 18.2142857,15 Z M13.0714286,19.5 L10.9285714,19.5 C10.575,19.5 10.2857143,19.246875 10.2857143,18.9375 L10.2857143,17.0625 C10.2857143,16.753125 10.575,16.5 10.9285714,16.5 L13.0714286,16.5 C13.425,16.5 13.7142857,16.753125 13.7142857,17.0625 L13.7142857,18.9375 C13.7142857,19.246875 13.425,19.5 13.0714286,19.5 Z M7.92857143,19.5 L5.78571429,19.5 C5.43214286,19.5 5.14285714,19.246875 5.14285714,18.9375 L5.14285714,17.0625 C5.14285714,16.753125 5.43214286,16.5 5.78571429,16.5 L7.92857143,16.5 C8.28214286,16.5 8.57142857,16.753125 8.57142857,17.0625 L8.57142857,18.9375 C8.57142857,19.246875 8.28214286,19.5 7.92857143,19.5 Z M18.2142857,19.5 L16.0714286,19.5 C15.7178571,19.5 15.4285714,19.246875 15.4285714,18.9375 L15.4285714,17.0625 C15.4285714,16.753125 15.7178571,16.5 16.0714286,16.5 L18.2142857,16.5 C18.5678571,16.5 18.8571429,16.753125 18.8571429,17.0625 L18.8571429,18.9375 C18.8571429,19.246875 18.5678571,19.5 18.2142857,19.5 Z" id="Shape"></path>
                            </g>
                        </g>
                    </g>
                </g>
            </g>
        </g>
    </g>
</svg>