<?xml version="1.0" standalone="no"?>
<!DOCTYPE svg PUBLIC "-//W3C//DTD SVG 20010904//EN"
 "http://www.w3.org/TR/2001/REC-SVG-20010904/DTD/svg10.dtd">
<svg version="1.0" xmlns="http://www.w3.org/2000/svg"
 width="167.000000pt" height="167.000000pt" viewBox="0 0 167.000000 167.000000"
 preserveAspectRatio="xMidYMid meet">

<g transform="translate(0.000000,167.000000) scale(0.100000,-0.100000)"
fill="#000000" stroke="none">
<path d="M587 1272 c-23 -25 -21 -75 2 -96 28 -25 79 -17 104 15 20 28 17 57
-9 84 -21 21 -77 19 -97 -3z"/>
<path d="M180 886 l0 -226 50 0 49 0 3 78 3 77 64 0 64 0 22 -70 c30 -96 59
-149 113 -208 154 -165 405 -211 610 -111 51 25 164 120 181 153 8 14 2 16
-46 12 -47 -2 -65 -10 -115 -47 -174 -128 -411 -105 -560 54 -54 57 -82 110
-103 187 -14 54 -13 57 10 91 49 73 39 171 -21 211 -23 15 -53 19 -176 21
l-148 4 0 -226z m264 124 c26 -27 28 -55 5 -83 -19 -25 -26 -27 -95 -27 l-74
0 0 66 0 66 75 -4 c49 -2 80 -8 89 -18z"/>
<path d="M592 943 c4 -182 13 -218 73 -297 60 -79 198 -134 305 -122 53 6 135
39 173 68 17 13 15 15 -23 37 l-41 23 -51 -22 c-131 -56 -300 23 -338 158 -5
20 -10 101 -10 180 l0 142 -46 0 -46 0 4 -167z"/>
<path d="M874 1094 c-188 -67 -178 -344 14 -400 52 -15 126 -12 137 6 3 5 -4
25 -16 44 -19 33 -25 36 -65 36 -122 0 -158 173 -47 225 23 11 47 15 68 11 29
-6 34 -3 58 33 l26 39 -31 11 c-41 15 -94 13 -144 -5z"/>
<path d="M1197 1096 c-102 -38 -152 -115 -145 -225 4 -83 37 -138 107 -179 61
-36 155 -37 219 -4 38 20 102 91 102 114 0 4 -18 8 -40 8 -29 0 -52 -9 -82
-30 -32 -24 -51 -30 -91 -30 -44 0 -53 4 -88 39 -22 21 -39 44 -39 50 0 7 57
11 178 13 l177 3 -2 48 c-3 51 -22 98 -57 135 -52 58 -165 86 -239 58z m142
-90 c28 -15 61 -56 61 -76 0 -6 -47 -10 -130 -10 -89 0 -130 4 -130 11 0 6 17
29 39 50 34 34 44 39 85 39 26 0 60 -7 75 -14z"/>
</g>
</svg>
