<?xml version="1.0" encoding="UTF-8"?>
<svg width="15px" height="16px" viewBox="0 0 15 16" version="1.1" xmlns="http://www.w3.org/2000/svg" xmlns:xlink="http://www.w3.org/1999/xlink">
    <!-- Generator: sketchtool 64 (101010) - https://sketch.com -->
    <title>DA0E91CB-1A9F-47E1-8535-3A43F7E6E425</title>
    <desc>Created with sketchtool.</desc>
    <g id="Hifi-UI-Designs" stroke="none" stroke-width="1" fill="none" fill-rule="evenodd">
        <g id="Home2_search-active" transform="translate(-111.000000, -230.000000)" fill="#3345A9" fill-rule="nonzero">
            <g id="Group-5" transform="translate(0.000000, -115.000000)">
                <g id="Group-2" transform="translate(111.000000, 343.000000)">
                    <g id="utensils" transform="translate(0.000000, 2.000000)">
                        <path d="M10.7219565,14.696875 L11.1644203,9.546875 C9.8526087,8.5125 8.9707971,7.140625 8.9707971,5.5 C8.97391304,2.553125 11.719058,0 13.7101449,0 C14.3987681,0 14.9565217,0.540625 14.9565217,1.203125 L14.9565217,14.796875 C14.9565217,15.459375 14.3987681,16 13.7101449,16 L11.9652174,16 C11.2547826,16 10.6627536,15.415625 10.7219565,14.696875 Z M9.97101449,5.5 C9.97101449,7.09375 10.9743478,8.171875 12.2082609,9.078125 L11.715942,14.784375 C11.7065942,14.9 11.8218841,15 11.9652174,15 L13.7101449,15 C13.8441304,15 13.9594203,14.90625 13.9594203,14.796875 L13.9594203,1.203125 C13.9594203,1.09375 13.8441304,1 13.7101449,1 C12.3204348,1 9.97101449,3.05625 9.97101449,5.5 Z M7.50007246,1.05625 C7.39724638,0.446875 6.83949275,0 6.06362319,0 C5.69282609,0 5.31268116,0.10625 5.02601449,0.35 C4.76427536,0.128125 4.40282609,0 3.9884058,0 C3.57398551,0 3.21253623,0.128125 2.9507971,0.35 C2.66413043,0.10625 2.28398551,0 1.91318841,0 C1.12797101,0 0.579565217,0.453125 0.47673913,1.05625 C0.420652174,1.35 0,3.7 0,4.684375 C0,6.275 0.831956522,7.546875 2.21231884,8.14375 L1.85710145,14.73125 C1.81971014,15.41875 2.365,16 3.05362319,16 L4.92318841,16 C5.60869565,16 6.15710145,15.421875 6.11971014,14.73125 L5.76449275,8.14375 C7.14173913,7.546875 7.97681159,6.275 7.97681159,4.684375 C7.97681159,3.7 7.55615942,1.35 7.50007246,1.05625 Z M4.74557971,7.5 L5.12572464,14.784375 C5.13195652,14.9 5.0415942,15 4.92318841,15 L3.05362319,15 C2.93833333,15 2.84485507,14.903125 2.85108696,14.784375 L3.23123188,7.5 C1.91007246,7.225 0.997101449,6.15625 0.997101449,4.684375 C0.997101449,3.75625 1.45826087,1.228125 1.45826087,1.228125 C1.50811594,0.91875 2.34007246,0.925 2.37746377,1.234375 L2.37746377,5.0625 C2.40550725,5.421875 3.25615942,5.428125 3.29666667,5.06875 L3.52724638,1.228125 C3.57710145,0.925 4.3965942,0.925 4.44644928,1.228125 L4.67702899,5.06875 C4.71753623,5.425 5.56818841,5.41875 5.59623188,5.0625 L5.59623188,1.2375 C5.63362319,0.928125 6.46557971,0.921875 6.51543478,1.23125 C6.51543478,1.23125 6.97660221,3.759375 6.97660221,4.6875 C6.97971014,6.15 6.07297101,7.225 4.74557971,7.5 Z" id="Shape"></path>
                    </g>
                </g>
            </g>
        </g>
    </g>
</svg>