<?xml version="1.0" encoding="UTF-8"?>
<svg width="31px" height="30px" viewBox="0 0 31 30" version="1.1" xmlns="http://www.w3.org/2000/svg" xmlns:xlink="http://www.w3.org/1999/xlink">
    <!-- Generator: sketchtool 64 (101010) - https://sketch.com -->
    <title>52BD8C81-B066-4D14-A559-60F53B6C9891</title>
    <desc>Created with sketchtool.</desc>
    <g id="Hifi-UI-Designs" stroke="none" stroke-width="1" fill="none" fill-rule="evenodd">
        <g id="BookMarkPopup" transform="translate(-300.000000, -818.000000)" fill="#D8D8D8" fill-rule="nonzero">
            <g id="Group-11">
                <g id="star" transform="translate(300.000000, 818.000000)">
                    <path d="M29.4123118,10.0483283 L20.9467193,8.80043575 L17.1629877,1.04358252 C16.485045,-0.339058989 14.5207494,-0.356634941 13.8370123,1.04358252 L10.0532807,8.80043575 L1.58768825,10.0483283 C0.0695601028,10.270957 -0.538850032,12.1633011 0.562082593,13.2471515 L6.68674462,19.2815614 L5.23814906,27.8058979 C4.97740186,29.3467229 6.58244574,30.5008771 7.92674242,29.7802631 L15.5,25.7553702 L23.0732576,29.7802631 C24.4175543,30.4950184 26.0225981,29.3467229 25.7618509,27.8058979 L24.3132554,19.2815614 L30.4379174,13.2471515 C31.53885,12.1633011 30.9304399,10.270957 29.4123118,10.0483283 L29.4123118,10.0483283 Z M22.3257823,18.6253926 L23.9366205,28.1164063 L15.5,23.6403974 L7.06917385,28.122265 L8.68001211,18.6312512 L1.85422983,11.8996618 L11.2816897,10.5170203 L15.5,1.87551089 L19.7183103,10.5170203 L29.1457702,11.8996618 L22.3257823,18.6253926 Z" id="Shape"></path>
                </g>
            </g>
        </g>
    </g>
</svg>