<?xml version="1.0" encoding="UTF-8"?>
<svg width="20px" height="20px" viewBox="0 0 20 20" version="1.1" xmlns="http://www.w3.org/2000/svg" xmlns:xlink="http://www.w3.org/1999/xlink">
    <!-- Generator: sketchtool 59 (101010) - https://sketch.com -->
    <title>F67604BE-E56B-44A3-B21A-018C0B3086C7</title>
    <desc>Created with sketchtool.</desc>
    <g id="Hifi-UI-Designs" stroke="none" stroke-width="1" fill="none" fill-rule="evenodd">
        <g id="Home2_nolocationdata" transform="translate(-335.000000, -35.000000)" fill="#D8D8D8" fill-rule="nonzero">
            <g id="ic_search" transform="translate(335.000000, 35.000000)">
                <path d="M19.8623114,18.3155119 L15.1203555,13.573556 C15.0305161,13.4837166 14.9133343,13.4368439 14.7883404,13.4368439 L14.2727406,13.4368439 C15.5031493,12.0111323 16.2492066,10.1557541 16.2492066,8.12460329 C16.2492066,3.63654118 12.6126654,0 8.12460329,0 C3.63654118,0 0,3.63654118 0,8.12460329 C0,12.6126654 3.63654118,16.2492066 8.12460329,16.2492066 C10.1557541,16.2492066 12.0111323,15.5031493 13.4368439,14.2727406 L13.4368439,14.7883404 C13.4368439,14.9133343 13.4876227,15.0305161 13.573556,15.1203555 L18.3155119,19.8623114 C18.4990967,20.0458962 18.7959572,20.0458962 18.979542,19.8623114 L19.8623114,18.979542 C20.0458962,18.7959572 20.0458962,18.4990967 19.8623114,18.3155119 Z M8.12460329,14.3742981 C4.67164689,14.3742981 1.87490845,11.5775597 1.87490845,8.12460329 C1.87490845,4.67164689 4.67164689,1.87490845 8.12460329,1.87490845 C11.5775597,1.87490845 14.3742981,4.67164689 14.3742981,8.12460329 C14.3742981,11.5775597 11.5775597,14.3742981 8.12460329,14.3742981 Z" id="Shape"></path>
            </g>
        </g>
    </g>
</svg>